# AST/ASF file generated using VICON BodyLanguage
# -----------------------------------------------
:version 1.10
:name VICON
:units
  mass 1.0
  length 0.45
  angle deg
:documentation
   .ast/.asf automatically generated from VICON data using
   VICON BodyBuilder and BodyLanguage model FoxedUp or BRILLIANT.MOD
:root
   order TX TY TZ RX RY RZ
   axis XYZ
   position 0 0 0  
   orientation 0 0 0 
:bonedata
  begin
     id 1 
     name lhipjoint
     direction 0.576517 -0.752066 0.319413 
     length 2.45433 
     axis 0 0 0  XYZ
  end
  begin
     id 2 
     name lfemur
     direction 0.34202 -0.939693 0  
     length 7.54459  
     axis 0 0 20  XYZ
    dof rx ry rz
    limits (-160.0 20.0)
           (-70.0 70.0)
           (-60.0 70.0)
  end
  begin
     id 3 
     name ltibia
     direction 0.34202 -0.939693 0   
     length 7.73986   
     axis 0 0 20   XYZ
    dof rx
    limits (-10.0 170.0)
  end
  begin
     id 4 
     name lfoot
     direction 0.090693 -0.249177 0.964202   
     length 2.28437   
     axis -90 7.62852e-016 20   XYZ
    dof rx rz
    limits (-45.0 90.0)
           (-70.0 20.0)
  end
  begin
     id 5 
     name ltoes
     direction 1.5356e-011 -4.21928e-011 1   
     length 1.14243   
     axis -90 7.62852e-016 20   XYZ
    dof rx
    limits (-90.0 20.0)
  end
  begin
     id 6 
     name rhipjoint
     direction -0.573937 -0.753736 0.320122   
     length 2.44889  
     axis 0 0 0  XYZ 
  end
  begin
     id 7 
     name rfemur
     direction -0.34202 -0.939693 0   
     length 7.50166   
     axis 0 0 -20   XYZ
    dof rx ry rz
    limits (-160.0 20.0)
           (-70.0 70.0)
           (-70.0 60.0)
  end
  begin
     id 8 
     name rtibia
     direction -0.34202 -0.939693 0   
     length 7.54266   
     axis 0 0 -20   XYZ
    dof rx
    limits (-10.0 170.0)
 end
 begin
     id 9 
     name rfoot
     direction -0.114017 -0.31326 0.942798   
     length 2.34212  
     axis -90 -7.62852e-016 -20   XYZ
    dof rx rz
    limits (-45.0 90.0)
           (-20.0 70.0)
  end
  begin
     id 10 
     name rtoes
     direction -1.53557e-011 -4.21867e-011 1   
     length 1.16246   
     axis -90 -7.62852e-016 -20   XYZ
    dof rx
    limits (-90.0 20.0)
  end
  begin
     id 11 
     name lowerback
     direction -0.0228371 0.999155 -0.034167   
     length 2.0537   
     axis 0 0 0   XYZ
    dof rx ry rz
    limits (-20.0 45.0)
           (-30.0 30.0)
           (-30.0 30.0)
  end
  begin
     id 12 
     name upperback
     direction 0.0198981 0.999794 0.00389455   
     length 2.05302   
     axis 0 0 0   XYZ
    dof rx ry rz
    limits (-20.0 45.0)
           (-30.0 30.0)
           (-30.0 30.0)
  end
  begin
     id 13 
     name thorax
     direction 0.0304566 0.99935 0.0192987   
     length 2.05315   
     axis 0 0 0   XYZ
    dof rx ry rz
    limits (-20.0 45.0)
           (-30.0 30.0)
           (-30.0 30.0)
  end
  begin
     id 14 
     name lowerneck
     direction -0.0196762 0.99417 0.106017   
     length 1.82056   
     axis 0 0 0   XYZ
    dof rx ry rz
    limits (-20.0 45.0)
           (-30.0 30.0)
           (-30.0 30.0)
  end
  begin
     id 15 
     name upperneck
     direction 0.00517787 0.9802 -0.197944   
     length 1.83835   
     axis 0 0 0   XYZ
    dof rx ry rz
    limits (-20.0 45.0)
           (-30.0 30.0)
           (-30.0 30.0)
  end
  begin
     id 16
     name head
     direction 0.00211419 0.996945 -0.078081  
     length 1.85629  
     axis 0 0 0   XYZ
    dof rx ry rz
    limits (-20.0 45.0)
           (-30.0 30.0)
           (-30.0 30.0)
  end
  begin
     id 17 
     name lclavicle
     direction 0.930001 0.365811 -0.0357824  
     length 3.81961  
     axis 0 0 0   XYZ
    dof ry rz
    limits (-20.0 10.0)
           (0.0 20.0)
  end
  begin
     id 18 
     name lhumerus
     direction 1 -4.48968e-011 -3.06644e-027   
     length 5.14507   
     axis 180 -30 -90   XYZ
    dof rx ry rz
    limits (-60.0 90.0)
           (-90.0 90.0)
           (-90.0 90.0)
  end
  begin
     id 19
     name lradius
     direction 1 -4.48965e-011 9.06925e-028   
     length 3.50646   
     axis 180 -30 -90   XYZ
    dof rx
    limits (-10.0 170.0)
  end
  begin
     id 20
     name lwrist
     direction 1 -4.48957e-011 1.03922e-027   
     length 1.75323   
     axis -2.56395e-016 90 90   XYZ
    dof ry
    limits (-180.0 0.0)
 end
  begin
     id 21 
     name lhand
     direction 1 -4.48967e-011 2.08017e-027   
     length 0.629969   
     axis -1.32723e-015 90 90   XYZ
    dof rx rz
    limits (-90.0 90.0)
           (-45.0 45.0)
  end
  begin
     id 22 
     name lfingers
     direction 1 -4.49089e-011 4.20095e-027   
     length 0.507897   
     axis -2.6545e-015 90 90   XYZ
    dof rx
    limits (0.0 90.0)
  end
  begin
     id 23
     name lthumb
     direction 0.707107 -6.35001e-011 0.707107   
     length 0.729241   
     axis -90 45 5.05613e-014   XYZ
    dof rx rz
    limits (-45.0 45.0)
           (-45.0 45.0)
  end
  begin
     id 24 
     name rclavicle
     direction -0.881882 0.464123 -0.0829113   
     length 3.47515  
     axis 0 0 0   XYZ 
    dof ry rz
    limits (-10.0 20.0)
           (-20.0 0.0)
  end
  begin
     id 25 
     name rhumerus
     direction -1 -4.48961e-011 -1.55672e-027  
     length 5.232   
     axis 180 30 90   XYZ
    dof rx ry rz
    limits (-90.0 60.0)
           (-90.0 90.0)
           (-90.0 90.0)
  end
  begin
     id 26 
     name rradius
     direction -1 -4.48963e-011 6.18178e-029   
     length 3.65641   
     axis 180 30 90   XYZ
    dof rx
    limits (-10.0 170.0)
  end
  begin
     id 27 
     name rwrist
     direction -1 -4.48982e-011 1.04136e-027   
     length 1.8282   
     axis -2.56395e-016 -90 -90   XYZ
    dof ry
    limits (-180.0 0.0)
  end
  begin
     id 28
     name rhand
     direction -1 -4.48929e-011 2.07378e-027   
     length 0.656807   
     axis -1.32723e-015 -90 -90   XYZ
    dof rx rz
    limits (-90.0 90.0)
           (-45.0 45.0)
  end
  begin
     id 29
     name rfingers
     direction -1 -4.489e-011 4.13816e-027   
     length 0.529535   
     axis -2.6545e-015 -90 -90   XYZ
    dof rx
    limits (0.0 90.0)
  end
  begin
     id 30
     name rthumb
     direction -0.707107 -6.34843e-011 0.707107   
     length 0.760309   
     axis -90 -45 -5.05613e-014   XYZ
    dof rx rz
    limits (-45.0 45.0)
           (-45.0 45.0)
  end
:hierarchy
  begin
    root lhipjoint rhipjoint lowerback
    lhipjoint lfemur
    lfemur ltibia
    ltibia lfoot
    lfoot ltoes
    rhipjoint rfemur
    rfemur rtibia
    rtibia rfoot
    rfoot rtoes
    lowerback upperback
    upperback thorax
    thorax lowerneck lclavicle rclavicle
    lowerneck upperneck
    upperneck head
    lclavicle lhumerus
    lhumerus lradius
    lradius lwrist
    lwrist lhand lthumb
    lhand lfingers
    rclavicle rhumerus
    rhumerus rradius
    rradius rwrist
    rwrist rhand rthumb
    rhand rfingers
  end

#!OML:ASF H:\ManfredETheater\Project 1\Capture day 1\Session 1\subject.ASF
:FULLY-SPECIFIED
:DEGREES
31
root -1.52717 16.0011 26.1306 -164.328 8.51833 -190.716
lowerback 10.9226 -5.60337 -5.97547
upperback -2.2742 -8.12758 2.62255
thorax -7.31226 -3.65413 7.45423
lowerneck -17.4828 4.84207 2.18677
upperneck 6.17605 6.81128 -6.35054
head 4.97331 3.02702 -1.69947
rclavicle 4.21423e-014 -7.15625e-015
rhumerus -72.9523 -4.42187 -45.231
rradius 69.7863
rwrist -9.74709
rhand -28.2954 -1.3681
rfingers 7.12502
rthumb -1.67126 -31.3413
lclavicle 4.21423e-014 -7.15625e-015
lhumerus -31.1179 -15.6817 86.9334
lradius 126.754
lwrist -5.26387
lhand -30.1278 -5.58551
lfingers 7.12502
lthumb -3.44084 24.3665
rfemur -71.818 -8.17423 15.5873
rtibia 55.4292
rfoot -6.02944 -1.88114
rtoes -26.0486
lfemur 7.15405 -5.21094 -40.0934
ltibia 35.9051
lfoot 22.1489 -13.3212
ltoes 2.87626
32
root -1.5181 15.9939 25.5573 -165.001 8.72582 -190.984
lowerback 11.0352 -5.48482 -6.14358
upperback -2.23829 -8.00261 2.55106
thorax -7.34626 -3.58484 7.46667
lowerneck -17.6498 4.7936 2.16445
upperneck 6.60811 6.77894 -6.42938
head 5.1369 2.98945 -1.71662
rclavicle 4.01545e-014 -2.22639e-014
rhumerus -72.4051 -4.52996 -45.1862
rradius 70.8953
rwrist -9.73285
rhand -28.3617 -1.01851
rfingers 7.12502
rthumb -1.73525 -30.9912
lclavicle 4.01545e-014 -2.22639e-014
lhumerus -31.9106 -16.013 87.1834
lradius 125.351
lwrist -4.28668
lhand -29.4539 -4.96054
lfingers 7.12502
lthumb -2.79009 25.001
rfemur -71.1039 -8.95878 16.8933
rtibia 53.6383
rfoot -4.6901 -1.47763
rtoes -24.8332
lfemur 6.63929 -5.10368 -40.5479
ltibia 39.926
lfoot 20.1922 -12.6664
ltoes 1.86159
33
root -1.50804 15.9809 24.9896 -165.702 8.83774 -191.071
lowerback 11.2354 -5.34379 -6.1557
upperback -2.14665 -7.82355 2.52559
thorax -7.39235 -3.49481 7.4416
lowerneck -17.7743 4.69943 2.09589
upperneck 6.88411 6.69131 -6.49697
head 5.24065 2.93049 -1.73106
rclavicle -4.33351e-014 4.92986e-014
rhumerus -71.7529 -4.80296 -45.3076
rradius 72.0452
rwrist -9.47355
rhand -28.4293 -0.753455
rfingers 7.12502
rthumb -1.80054 -30.7256
lclavicle -4.33351e-014 4.92986e-014
lhumerus -32.785 -16.3016 87.6681
lradius 123.534
lwrist -2.74719
lhand -28.3929 -4.20503
lfingers 7.12502
lthumb -1.76542 25.7674
rfemur -70.2633 -9.86057 18.4292
rtibia 52.4664
rfoot -3.5937 -1.24221
rtoes -24.2975
lfemur 5.73262 -4.78575 -40.6614
ltibia 44.6134
lfoot 17.9818 -11.7253
ltoes 0.230148
34
root -1.49602 15.9661 24.4268 -166.436 8.86323 -190.944
lowerback 11.5206 -5.18926 -5.99205
upperback -1.9969 -7.59734 2.55198
thorax -7.44593 -3.38829 7.37335
lowerneck -17.8415 4.57021 1.99516
upperneck 7.00642 6.55886 -6.55823
head 5.28379 2.85539 -1.74555
rclavicle 1.66979e-014 5.00937e-014
rhumerus -70.9841 -5.20895 -45.6277
rradius 73.2377
rwrist -9.08298
rhand -28.4922 -0.571463
rfingers 7.12502
rthumb -1.86126 -30.5431
lclavicle 1.66979e-014 5.00937e-014
lhumerus -33.7362 -16.4926 88.3585
lradius 121.333
lwrist -0.989724
lhand -27.0591 -3.31907
lfingers 7.12502
lthumb -0.47713 26.6601
rfemur -69.2387 -10.8327 20.1251
rtibia 51.8882
rfoot -2.79191 -1.23889
rtoes -23.7686
lfemur 4.50027 -4.30904 -40.3961
ltibia 49.7448
lfoot 15.88 -10.7174
ltoes -1.89613
35
root -1.48086 15.9514 23.869 -167.207 8.81629 -190.605
lowerback 11.9066 -5.02641 -5.66693
upperback -1.79905 -7.33159 2.62791
thorax -7.52265 -3.26661 7.26952
lowerneck -17.8619 4.41738 1.87331
upperneck 7.01613 6.39403 -6.6065
head 5.28149 2.76937 -1.75768
rclavicle 4.53229e-014 -5.725e-014
rhumerus -70.0968 -5.71153 -46.1724
rradius 74.4721
rwrist -8.69369
rhand -28.5558 -0.484471
rfingers 7.12502
rthumb -1.92268 -30.4556
lclavicle 4.53229e-014 -5.725e-014
lhumerus -34.7481 -16.5378 89.2123
lradius 118.76
lwrist 0.637161
lhand -25.5635 -2.44201
lfingers 7.12502
lthumb 0.967333 27.5355
rfemur -67.9702 -11.8162 21.8652
rtibia 51.8586
rfoot -2.3883 -1.59373
rtoes -22.7858
lfemur 2.98184 -3.70033 -39.7461
ltibia 55.1454
lfoot 14.0714 -9.9476
ltoes -4.00905
36
root -1.46147 15.9372 23.3165 -168.038 8.72379 -190.094
lowerback 12.4184 -4.85812 -5.22992
upperback -1.55977 -7.03627 2.73799
thorax -7.63679 -3.13104 7.14405
lowerneck -17.8415 4.24998 1.74237
upperneck 6.95131 6.20555 -6.63269
head 5.24716 2.67615 -1.76499
rclavicle -5.56597e-015 -4.13472e-014
rhumerus -69.0803 -6.27274 -46.9658
rradius 75.7409
rwrist -8.41425
rhand -28.6161 -0.449982
rfingers 7.12502
rthumb -1.98093 -30.4205
lclavicle -5.56597e-015 -4.13472e-014
lhumerus -35.786 -16.4006 90.1663
lradius 115.82
lwrist 1.86474
lhand -24.0378 -1.65369
lfingers 7.12502
lthumb 2.44083 28.3121
rfemur -66.4163 -12.7273 23.4643
rtibia 52.3244
rfoot -2.50959 -2.25906
rtoes -21.6377
lfemur 1.22121 -2.97615 -38.7554
ltibia 60.6725
lfoot 12.4606 -9.47791
ltoes -5.76111
37
root -1.4372 15.9212 22.7716 -168.914 8.61304 -189.477
lowerback 13.0675 -4.68227 -4.75392
upperback -1.30212 -6.71917 2.8604
thorax -7.81154 -2.98079 7.01631
lowerneck -17.8105 4.07481 1.6304
upperneck 6.8662 5.99826 -6.64047
head 5.20394 2.5761 -1.77157
rclavicle -1.70955e-014 -3.49861e-014
rhumerus -67.9304 -6.87052 -48.0174
rradius 77.0276
rwrist -8.28479
rhand -28.6898 -0.420988
rfingers 7.12502
rthumb -2.0521 -30.3909
lclavicle -1.70955e-014 -3.49861e-014
lhumerus -36.8057 -16.0719 91.1514
lradius 112.513
lwrist 2.55095
lhand -22.5971 -1.04305
lfingers 7.12502
lthumb 3.83222 28.9022
rfemur -64.6169 -13.4794 24.7639
rtibia 53.2272
rfoot -3.16622 -3.30266
rtoes -20.1505
lfemur -0.790153 -2.16897 -37.5042
ltibia 66.2274
lfoot 10.9199 -9.16258
ltoes -6.85861
38
root -1.40821 15.9008 22.2356 -169.864 8.52231 -188.81
lowerback 13.9009 -4.49437 -4.31014
upperback -1.03631 -6.38483 2.98739
thorax -8.07614 -2.81343 6.92251
lowerneck -17.7711 3.90213 1.53889
upperneck 6.78252 5.78691 -6.63399
head 5.15992 2.47535 -1.77724
rclavicle 2.66371e-014 1.27222e-014
rhumerus -66.622 -7.44661 -49.3177
rradius 78.3146
rwrist -8.28875
rhand -28.7706 -0.348456
rfingers 7.12502
rthumb -2.13018 -30.3176
lclavicle 2.66371e-014 1.27222e-014
lhumerus -37.7675 -15.5375 92.1205
lradius 108.843
lwrist 2.73226
lhand -21.404 -0.66123
lfingers 7.12502
lthumb 4.98422 29.2602
rfemur -62.5795 -13.9935 25.6651
rtibia 54.5116
rfoot -4.28241 -4.72166
rtoes -18.4432
lfemur -3.00339 -1.27442 -36.0663
ltibia 71.7183
lfoot 9.32499 -8.85042
ltoes -7.21622
39
root -1.37527 15.8736 21.7101 -170.85 8.48762 -188.091
lowerback 14.8874 -4.28437 -3.89245
upperback -0.76453 -6.01551 3.11446
thorax -8.41821 -2.62181 6.84509
lowerneck -17.7695 3.73601 1.49061
upperneck 6.72171 5.57341 -6.61733
head 5.12991 2.37362 -1.78596
rclavicle 6.59965e-014 5.725e-014
rhumerus -65.1319 -8.00953 -50.8581
rradius 79.5768
rwrist -8.36711
rhand -28.8619 -0.196256
rfingers 7.12502
rthumb -2.21834 -30.1645
lclavicle 6.59965e-014 5.725e-014
lhumerus -38.5872 -14.8148 92.9832
lradius 104.813
lwrist 2.43637
lhand -20.5159 -0.502869
lfingers 7.12502
lthumb 5.84173 29.3966
rfemur -60.389 -14.1909 26.1988
rtibia 56.1108
rfoot -5.79204 -6.40312
rtoes -16.7176
lfemur -5.44502 -0.307368 -34.4627
ltibia 77.0788
lfoot 7.56487 -8.36202
ltoes -7.22087
40
root -1.33951 15.839 21.1949 -171.829 8.54731 -187.278
lowerback 15.9674 -4.04895 -3.45948
upperback -0.482911 -5.5934 3.25863
thorax -8.80347 -2.40086 6.76557
lowerneck -17.7979 3.57573 1.47171
upperneck 6.66677 5.35962 -6.59048
head 5.10697 2.27225 -1.79568
rclavicle -7.35503e-014 1.90833e-014
rhumerus -63.4218 -8.52489 -52.6156
rradius 80.791
rwrist -8.43893
rhand -28.9661 0.0315734
rfingers 7.12502
rthumb -2.31892 -29.9356
lclavicle -7.35503e-014 1.90833e-014
lhumerus -39.2167 -13.9344 93.7019
lradius 100.442
lwrist 1.83926
lhand -20.0754 -0.505456
lfingers 7.12502
lthumb 6.26704 29.3818
rfemur -58.0935 -14.0305 26.4966
rtibia 57.8673
rfoot -7.583 -8.20326
rtoes -15.654
lfemur -8.16676 0.766712 -32.6679
ltibia 82.2092
lfoot 5.63809 -7.60444
ltoes -7.44808
41
root -1.30256 15.7958 20.6896 -172.752 8.70851 -186.342
lowerback 17.0834 -3.78938 -2.96029
upperback -0.197932 -5.10582 3.42892
thorax -9.21051 -2.14815 6.65316
lowerneck -17.842 3.41701 1.47761
upperneck 6.58848 5.13921 -6.54923
head 5.07907 2.16954 -1.80534
rclavicle -5.1684e-014 6.04305e-014
rhumerus -61.4867 -8.97415 -54.5646
rradius 81.9486
rwrist -8.44499
rhand -29.1017 0.312243
rfingers 7.12502
rthumb -2.4499 -29.6534
lclavicle -5.1684e-014 6.04305e-014
lhumerus -39.636 -12.9594 94.2564
lradius 95.7563
lwrist 1.13601
lhand -20.1909 -0.619994
lfingers 7.12502
lthumb 6.15554 29.2706
rfemur -55.7994 -13.5417 26.7027
rtibia 59.7647
rfoot -9.61211 -10.0144
rtoes -15.5675
lfemur -11.195 1.9179 -30.6684
ltibia 87.093
lfoot 3.54953 -6.58146
ltoes -7.59799
42
root -1.26399 15.7788 20.187 -173.573 8.95846 -185.263
lowerback 18.1676 -3.52042 -2.34672
upperback 0.0808928 -4.55825 3.63232
thorax -9.61203 -1.87058 6.48005
lowerneck -17.8719 3.25891 1.50334
upperneck 6.46746 4.9125 -6.50229
head 5.03555 2.06609 -1.81724
rclavicle -3.06128e-014 3.97569e-014
rhumerus -59.3361 -9.30674 -56.6765
rradius 83.0482
rwrist -8.34475
rhand -29.2816 0.60893
rfingers 7.12502
rthumb -2.62368 -29.3547
lclavicle -3.06128e-014 3.97569e-014
lhumerus -39.8639 -11.9253 94.6314
lradius 90.8134
lwrist 0.42989
lhand -20.8444 -0.803493
lfingers 7.12502
lthumb 5.52456 29.1045
rfemur -53.3673 -12.829 26.9251
rtibia 61.578
rfoot -11.8248 -11.6534
rtoes -15.9714
lfemur -14.5032 3.12796 -28.4464
ltibia 91.4912
lfoot 1.49169 -5.43306
ltoes -7.41839
43
root -1.22792 15.7222 19.6958 -174.241 9.26728 -184.054
lowerback 19.1436 -3.25458 -1.60485
upperback 0.337754 -3.96298 3.86934
thorax -9.97926 -1.57735 6.23436
lowerneck -17.868 3.09716 1.52833
upperneck 6.30441 4.67762 -6.44104
head 4.97274 1.96124 -1.82566
rclavicle 1.23246e-014 2.22639e-014
rhumerus -57.0065 -9.49924 -58.9093
rradius 84.1011
rwrist -8.12001
rhand -29.5267 0.871037
rfingers 7.12502
rthumb -2.86041 -29.0895
lclavicle 1.23246e-014 2.22639e-014
lhumerus -39.9569 -10.8785 94.8367
lradius 85.7224
lwrist -0.212545
lhand -21.8984 -0.976587
lfingers 7.12502
lthumb 4.50686 28.9555
rfemur -51.2087 -11.9701 27.3086
rtibia 63.4526
rfoot -14.0037 -13.1744
rtoes -17.5331
lfemur -18.2639 4.34325 -26.0959
ltibia 95.6339
lfoot -0.614063 -4.23787
ltoes -6.84513
44
root -1.19338 15.6604 19.2074 -174.738 9.58925 -182.752
lowerback 19.9463 -3.01247 -0.741545
upperback 0.566456 -3.35206 4.12947
thorax -10.2767 -1.28622 5.91269
lowerneck -17.8175 2.93204 1.53666
upperneck 6.11305 4.43807 -6.35703
head 4.89264 1.85644 -1.82499
rclavicle 5.64548e-014 -3.02153e-014
rhumerus -54.5474 -9.51896 -61.2335
rradius 85.1329
rwrist -7.77413
rhand -29.7923 1.12916
rfingers 7.12502
rthumb -3.1169 -28.8278
lclavicle 5.64548e-014 -3.02153e-014
lhumerus -40.007 -9.85351 94.8932
lradius 80.6454
lwrist -0.721173
lhand -23.1863 -1.11039
lfingers 7.12502
lthumb 3.26318 28.8444
rfemur -49.1472 -11.129 27.8543
rtibia 65.2064
rfoot -16.1423 -14.5727
rtoes -19.9336
lfemur -22.4228 5.51148 -23.687
ltibia 99.2751
lfoot -2.66996 -3.12473
ltoes -6.27924
